PathFileType	4	(X/Y/Z)	D:\TRACE\spotREDO_2-26-24\spot_justBody_Motion_3_2-platform.trc
DataRate	CameraRate	NumFrames	NumMarkers	Units	OrigDataRate	OrigDataStartFrame	OrigNumFrames
100.00	100.00	      66	5	mm	100.00	5251	      7000
Frame#	Time	Left_Front			Right_Front			Left_Aft			Right_Aft			Post			
		X1	Y1	Z1	X2	Y2	Z2	X3	Y3	Z3	X4	Y4	Z4	X5	Y5	Z5	

5251	52.500	-679.80096	-27.32008	-581.21075	735.41241	-15.37090	-496.76605	-751.36353	28.47607	636.12897	819.20697	36.15202	640.00732	29.95057	583.12451	-1012.04224	
5252	52.510	-679.86072	-27.26375	-581.20123	735.11639	-15.01094	-496.77209	-751.50281	28.36365	636.14594	819.19989	35.88388	640.09863	30.00220	583.56525	-1011.45782	
5253	52.520	-679.92932	-27.20494	-581.17163	734.79785	-14.74296	-496.69656	-751.68011	28.44705	636.23828	818.76190	35.83656	640.16595	29.51378	584.07825	-1011.32813	
5254	52.530	-680.05310	-27.10057	-581.17029	734.53302	-14.63961	-496.74738	-751.83783	28.15989	636.40106	818.38440	35.72702	640.29108	29.48290	584.25787	-1011.20453	
5255	52.540	-680.22095	-26.97641	-581.13751	734.34076	-14.51593	-496.74957	-752.00403	27.95700	636.39398	818.25977	35.68965	640.35083	29.20094	584.47400	-1011.07910	
5256	52.550	-680.30615	-26.88361	-581.15448	734.18402	-14.52132	-496.73883	-752.12164	27.77186	636.33386	818.34442	35.58536	640.35315	29.06283	584.60498	-1011.09741	
5257	52.560	-680.39569	-26.74653	-581.10730	734.15607	-14.41023	-496.68588	-752.17737	27.64625	636.41168	818.32324	35.46984	640.31268	29.27821	584.69861	-1010.70996	
5258	52.570	-680.45105	-26.50836	-581.06866	734.11975	-14.28896	-496.52963	-752.33331	27.58929	636.51270	818.22491	35.42810	640.33698	28.74296	584.98700	-1010.98761	
5259	52.580	-680.51245	-26.31956	-580.95691	734.25385	-14.39802	-496.44595	-752.44409	27.55913	636.50403	818.02710	35.15458	640.26331	28.66420	585.14050	-1010.92365	
5260	52.590	-680.69635	-26.11139	-580.90369	734.13708	-14.39453	-496.39584	-752.54089	27.42224	636.57220	817.78735	35.02109	640.18475	28.50869	585.30481	-1010.75916	
5261	52.600	-680.91089	-25.93975	-580.88965	734.01563	-14.42033	-496.36679	-752.72382	27.31901	636.62360	817.72498	34.80890	640.11743	28.35138	585.46942	-1010.69324	
5262	52.610	-681.07629	-25.86654	-580.86731	733.83905	-14.30891	-496.34570	-753.00702	27.24707	636.62543	817.48383	34.73045	640.01971	28.14168	585.58704	-1010.50879	
5263	52.620	-681.24121	-25.76212	-580.82605	733.71021	-14.15827	-496.40274	-753.12073	27.20214	636.65021	817.27740	34.68570	640.19232	27.92590	585.77753	-1010.32269	
5264	52.630	-681.45557	-25.63768	-580.71136	733.53119	-14.02773	-496.42474	-753.42828	27.21647	636.63696	817.00372	34.61368	640.32275	27.59104	586.09399	-1010.03558	
5265	52.640	-681.60413	-25.58954	-580.66418	733.20642	-13.87625	-496.38916	-753.34601	27.36695	636.84351	816.88544	34.21226	640.13531	27.54231	586.18805	-1009.98041	
5266	52.650	-681.80524	-25.52299	-580.69696	732.88470	-13.76504	-496.43835	-753.65436	27.22881	636.81824	817.22443	33.77601	639.80402	27.39869	586.29730	-1009.89343	
5267	52.660	-682.10931	-25.47408	-580.77185	732.76056	-13.73968	-496.38617	-753.73303	27.06047	636.79584	816.62390	34.11728	640.02759	27.30479	586.36517	-1009.81329	
5268	52.670	-682.31152	-25.53621	-580.76849	732.64087	-13.84030	-496.24658	-753.94116	26.79309	636.72589	816.48346	34.10744	640.00671	27.10368	586.44177	-1009.75714	
5269	52.680	-682.44427	-25.46198	-580.75983	732.40143	-13.57301	-496.24014	-754.18243	26.76677	636.78595	816.17468	33.72327	639.77954	26.90879	586.54120	-1009.67596	
5270	52.690	-682.73938	-25.39654	-580.78265	732.19275	-13.49567	-496.22244	-754.50299	26.79589	636.79633	815.62921	33.34921	639.89307	26.71638	586.64026	-1009.58276	
5271	52.700	-683.08990	-25.23865	-580.73206	731.94116	-13.43303	-496.25250	-754.66827	26.70246	636.88068	815.38263	33.23451	639.89020	26.64327	586.69659	-1009.54089	
5272	52.710	-683.28119	-25.19270	-580.71301	731.69672	-13.54577	-496.25320	-754.94214	26.45542	636.85052	815.08801	32.94275	639.73706	26.45546	586.72644	-1009.50751	
5273	52.720	-683.43811	-25.21505	-580.68719	731.56268	-13.52036	-496.30032	-755.07629	26.39039	636.90063	814.96960	32.93832	639.80457	26.25131	586.74561	-1009.49182	
5274	52.730	-683.54633	-25.16575	-580.68671	731.40784	-13.49783	-496.27325	-754.89191	25.82242	637.24048	814.65210	32.50712	639.46576	25.97845	586.85315	-1009.39459	
5275	52.740	-683.60614	-25.14061	-580.71112	731.23376	-13.44448	-496.27206	-755.02405	25.73843	637.16248	815.49982	34.17920	640.99829	25.81282	586.91498	-1009.33813	
5276	52.750	-683.75818	-25.18326	-580.72906	731.07831	-13.39991	-496.22641	-755.53302	26.05565	636.98767	815.10406	34.03736	640.84216	25.46627	587.10327	-1009.18433	
5277	52.760	-683.93933	-25.20251	-580.75226	730.80603	-13.18507	-496.38638	-755.84583	25.98024	636.90192	814.92340	34.18723	640.96588	25.28375	587.15216	-1009.04883	
5278	52.770	-684.16058	-25.18170	-580.72729	730.52588	-13.20960	-496.33517	-755.98602	25.99073	636.95868	814.63513	34.18107	641.00800	25.06361	587.23480	-1009.02582	
5279	52.780	-684.41174	-25.17282	-580.73846	730.28632	-13.19290	-496.24603	-756.12427	26.01342	636.90540	814.49286	34.18297	641.04285	24.97424	587.29077	-1008.98413	
5280	52.790	-684.73322	-25.08982	-580.69055	730.08740	-13.16421	-496.19278	-756.43530	26.04415	636.80090	814.14673	33.99821	641.07416	24.82624	587.33716	-1008.97876	
5281	52.800	-685.01019	-25.04592	-580.63159	729.90845	-13.07831	-496.20029	-756.66840	25.99639	636.97815	813.93414	33.89008	641.11243	24.63900	587.43103	-1008.99683	
5282	52.810	-685.19043	-24.99911	-580.65674	729.83405	-13.10976	-496.16891	-756.84076	25.56554	636.96167	813.92816	33.90330	641.11029	24.48686	587.47968	-1009.02802	
5283	52.820	-685.43317	-24.97269	-580.58594	729.63300	-13.10569	-496.13248	-757.08423	25.62350	636.97125	813.89221	33.94257	641.13776	24.22859	587.55219	-1009.09827	
5284	52.830	-685.65363	-24.94138	-580.62164	729.47833	-13.23582	-496.04102	-757.19824	25.70121	636.91504	813.75793	33.96838	641.12183	23.96876	587.60059	-1009.17834	
5285	52.840	-685.82477	-25.00465	-580.59338	729.13910	-13.22600	-496.06253	-757.43518	25.64119	636.94592	813.41376	33.97029	641.18420	23.60419	587.64575	-1009.23871	
5286	52.850	-686.00873	-24.94258	-580.57080	728.86334	-13.08896	-496.29465	-757.59497	25.63896	636.91943	813.22760	33.81324	641.15393	23.34641	587.64734	-1009.25269	
5287	52.860	-686.12897	-24.90431	-580.56299	728.64117	-12.96387	-496.27838	-757.68158	25.73211	636.93787	813.03607	33.65466	641.13000	23.15972	587.67310	-1009.23193	
5288	52.870	-686.31519	-24.95514	-580.78424	728.36169	-13.18526	-496.28735	-757.90839	25.65125	636.92969	812.49945	33.99075	641.04492	22.93624	587.62402	-1009.12097	
5289	52.880	-686.71893	-24.95138	-580.67499	728.11145	-13.37044	-496.11044	-758.06268	25.70665	636.92047	812.27942	33.87433	641.00659	22.69045	587.49579	-1009.09869	
5290	52.890	-686.93994	-24.94436	-580.78326	727.81586	-13.46268	-496.12341	-758.33936	25.81293	636.78009	811.01996	33.04501	640.23474	22.79306	587.50562	-1008.64270	
5291	52.900	-687.29474	-24.85692	-580.63373	727.63251	-13.46421	-496.06293	-758.60724	25.77658	636.88116	811.06488	32.61937	639.80560	22.65699	587.48853	-1008.56610	
5292	52.910	-687.36426	-24.80681	-580.79242	727.46527	-13.36652	-496.12183	-758.81757	25.65492	636.87634	810.86359	32.44358	639.80804	22.68776	587.41223	-1008.65399	
5293	52.920	-687.68414	-24.80086	-580.66211	727.29315	-13.39828	-496.08633	-759.22528	26.23495	636.87616	810.98468	32.72433	640.15839	22.46837	587.46313	-1008.64185	
5294	52.930	-687.76978	-24.93515	-580.64496	727.14868	-13.42271	-496.10791	-759.36688	26.37767	636.93658	810.69110	33.39463	640.67566	21.99045	587.32733	-1009.11896	
5295	52.940	-687.96289	-24.87154	-580.61639	727.02173	-13.36846	-496.07553	-759.32239	26.24036	636.96259	810.72321	33.58359	640.69733	21.55585	587.29901	-1009.42889	
5296	52.950	-688.17822	-24.78037	-580.63434	726.92200	-13.33897	-496.06039	-759.55737	26.02017	636.93329	810.65985	33.61717	640.72284	21.52111	587.46448	-1009.38696	
5297	52.960	-688.34827	-24.75831	-580.63318	726.84692	-13.33552	-496.00067	-759.72687	25.70770	636.99225	810.45947	33.54220	640.81177	21.28733	587.43506	-1009.46594	
5298	52.970	-688.47717	-24.76935	-580.58398	726.66583	-13.19838	-496.11111	-759.96930	26.05941	636.97198	810.21252	33.39742	640.77441	21.01978	587.54700	-1009.37683	
5299	52.980	-688.65601	-24.79888	-580.59320	726.77466	-13.24459	-495.94968	-760.11871	26.07686	636.97076	809.90845	33.29575	640.78027	20.88629	587.62634	-1009.22253	
5300	52.990	-688.79724	-24.83270	-580.60028	726.49750	-13.22436	-496.17596	-760.31433	26.03078	636.95947	809.85059	33.34815	640.72559	20.87309	587.48212	-1009.02686	
5301	53.000	-689.07239	-24.87688	-580.67352	726.29510	-13.19360	-496.18546	-760.49615	26.08693	636.88892	809.64893	33.33392	640.70465	20.68412	587.31464	-1008.81305	
5302	53.010	-689.31470	-24.93545	-580.73645	726.08655	-13.30627	-496.15173	-760.67871	26.09614	636.89001	809.60138	33.37820	640.67065	20.59206	587.27588	-1008.73566	
5303	53.020	-689.44800	-24.96694	-580.76849	725.89154	-13.37356	-496.16733	-760.83234	26.17211	636.86432	809.47894	33.38988	640.67700	20.42712	587.25787	-1008.68036	
5304	53.030	-689.53217	-25.00614	-580.75439	725.54883	-13.40849	-496.18542	-760.87042	26.07954	636.91235	809.25256	33.38977	640.70703	20.27848	587.10181	-1008.80817	
5305	53.040	-689.58459	-24.99489	-580.77063	725.54822	-13.57030	-496.09784	-761.03784	26.19426	636.87878	809.11871	33.46230	640.71661	20.08304	587.04584	-1009.04572	
5306	53.050	-689.66632	-25.01818	-580.80133	725.44452	-13.61001	-496.12503	-760.98944	26.23780	636.97540	809.06830	33.46396	640.71875	19.83818	587.07367	-1009.35242	
5307	53.060	-689.77881	-25.03210	-580.79510	725.25305	-13.48110	-496.11264	-761.15826	26.30831	637.00873	808.96069	33.48630	640.73334	19.78481	587.01080	-1009.46667	
5308	53.070	-689.85217	-24.99389	-580.78632	725.18158	-13.51106	-496.17856	-761.42950	26.14511	636.87775	808.80969	33.60699	640.77081	19.62943	587.03162	-1009.61536	
5309	53.080	-689.72931	-25.08054	-580.78375	724.81476	-13.31900	-496.24670	-761.59741	26.15675	636.89545	808.60925	33.59061	640.78113	19.34425	587.00439	-1009.86212	
5310	53.090	-689.87018	-25.07081	-580.78186	724.73883	-13.35840	-496.25079	-761.75360	26.22968	636.88922	808.56543	33.61586	640.78510	19.23432	586.98346	-1009.94427	
5311	53.100	-689.97198	-25.12990	-580.77460	724.64398	-13.35465	-496.22168	-761.81903	26.19746	636.89215	808.53778	33.61446	640.78656	19.16846	586.89618	-1009.96002	
5312	53.110	-690.11816	-25.14827	-580.73926	724.56732	-13.41264	-496.31259	-761.87628	26.24972	636.90375	808.53534	33.48927	640.62280	19.16618	586.82214	-1009.88837	
5313	53.120	-690.17908	-25.17084	-580.77881	724.56805	-13.44624	-496.32571	-761.91199	26.32145	636.90869	808.51410	33.49658	640.61920	19.09565	586.80841	-1009.72968	
5314	53.130	-690.34253	-25.18202	-580.75714	724.50446	-13.38266	-496.28082	-761.98633	26.44028	636.94727	808.44647	33.54078	640.62799	19.19488	586.76910	-1009.49078	
5315	53.140	-690.46429	-25.19428	-580.83008	724.45435	-13.40299	-496.30408	-762.03967	26.46592	636.92383	808.41254	33.57153	640.57587	19.14875	586.75494	-1009.35297	
5316	53.150	-690.51575	-25.28439	-580.80353	724.41412	-13.44149	-496.36722	-762.07599	26.45569	636.93744	808.35498	33.63404	640.55719	19.06479	586.75562	-1009.31451	
